/* XPM */
static char * image_name[] = {
"22 22 16 1",
" 	c None",
".	c #30C24D344924",
"X	c #28A228A228A2",
"o	c #186124921861",
"O	c #08204D340820",
"+	c #082004100000",
"@	c #965892489658",
"#	c #514451445144",
"$	c #08209A690820",
"%	c #0000E38D0000",
"&	c #69A66DB669A6",
"*	c #DF7DDF7DDF7D",
"=	c #79E77DF78617",
"-	c #28A2BAEA5144",
";	c #0000CB2B0000",
":	c #4103E38D9E79",
"                      ",
"                      ",
"                      ",
"    .XoXXXOO+XoXXoX   ",
"   o@#@@@#$%OXX##XX   ",
"   X@&@@@&$%O#@@*Xo   ",
"   o@#@*@&$%O#@@@#X   ",
"   X@#@=@#$%OX@###o   ",
"   X@&=&=.$%O@&@@=o   ",
"   +#oXo#+.&o+++X++   ",
"   .-;;;;;;;;;;;;;O   ",
"   .-;;;;;;;;;;;;;O   ",
"   o&+X++X..X++###+   ",
"   +@&@#=#-:.##&&@o   ",
"   +@&&&@X$%O&&#&@X   ",
"   +@#@&&#$%O&&#@@o   ",
"   +@#=#=#$%O&&@@#o   ",
"   +#####+-;O##X&+    ",
"   ++++++o..+++++     ",
"                      ",
"                      ",
"                      "};
