/* XPM */
static char * image_name[] = {
"22 22 71 1",
" 	c None",
".	c #41033CF338E3",
"X	c #208120812081",
"o	c #38E338E338E3",
"O	c #00003CF30000",
"+	c #00005D750000",
"@	c #000020810000",
"#	c #965896589E79",
"$	c #49244D344924",
"%	c #8E388E388E38",
"&	c #AEBAAEBAAEBA",
"*	c #38E334D330C2",
"=	c #000096580000",
"-	c #0000E38D0000",
";	c #00004D340000",
":	c #596559655965",
">	c #618561856185",
",	c #A699A289A699",
"<	c #69A669A669A6",
"1	c #492449244924",
"2	c #A699A699A699",
"3	c #861786178617",
"4	c #DF7DDF7DDF7D",
"5	c #28A224922081",
"6	c #8E388A288E38",
"7	c #08204D340820",
"8	c #8E388E389658",
"9	c #59655D756185",
"0	c #861786178E38",
"q	c #514451445144",
"w	c #38E334D338E3",
"e	c #618565956185",
"r	c #71C675D679E7",
"t	c #79E77DF78617",
"y	c #410341034103",
"u	c #0820E38D1040",
"i	c #69A66DB671C6",
"p	c #9E799E79A699",
"a	c #861782078617",
"s	c #20811C711861",
"d	c #000000000000",
"f	c #49244D345144",
"g	c #20814D344924",
"h	c #30C275D679E7",
"j	c #104024922081",
"k	c #208145144103",
"l	c #2081CB2B4103",
"z	c #0000CB2B0000",
"x	c #2081D34C4924",
"c	c #000045140000",
"v	c #104020812081",
"b	c #596571C671C6",
"n	c #104010401040",
"m	c #71C671C671C6",
"M	c #79E779E779E7",
"N	c #30C296586185",
"B	c #4103E38D9E79",
"V	c #18614D3430C2",
"C	c #59655D755965",
"Z	c #69A66DB669A6",
"A	c #41033CF34103",
"S	c #492445144103",
"D	c #082096580820",
"F	c #514455555144",
"G	c #186114511861",
"H	c #08200C301040",
"J	c #1040A69928A2",
"K	c #1040D75C1861",
"L	c #104000001040",
"P	c #28A25D755965",
"I	c #20813CF34103",
"                      ",
"                      ",
"                      ",
"    .XXXXoO+@XXXXXX   ",
"   X#$%&&*=-;oo::oX   ",
"   X#>,,,<=-;12345X   ",
"   X#:6,,<=-71888:X   ",
"   X#9600q=-;w6$$.X   ",
"   X#e0rty=u7#i#pas   ",
"   dfsssqdghjdddodd   ",
"   klzzzzzzzzzzzzzO   ",
"   gxzzzzzzzzzzzzzc   ",
"   vbdwddwghjddqq1n   ",
"   d#mM9a1NBVC9<<6X   ",
"   d#Zt<aA=-;e<>m6X   ",
"   d#:6mmA=-7mm:6%X   ",
"   d#yaSaSD-7>MM,FG   ",
"   d1CC9CHJKOCSS9L    ",
"   ddddddvPIddddd     ",
"                      ",
"                      ",
"                      "};
