/* XPM */
static char * idea_xpm[] = {
"22 22 7 1",
" 	c None",
".	c #000000000000",
"X	c #FFFFEBAD5144",
"o	c #FFFFDF7D28A2",
"O	c #FFFFFBEECB2B",
"+	c #FFFFF7DEA699",
"@	c #FFFFFFFFFFFF",
"                      ",
"                      ",
"                      ",
"                      ",
"        .....         ",
"       .XXXXo.        ",
"      .XOXXXoo.       ",
"     .XXX+OXXXo.      ",
"     .X+++OXXXo.      ",
"     .X++O+OXXo.      ",
"     .oOO.OoXoo.      ",
"      .oX.o.oo.       ",
"       .XX.oo.        ",
"        .o.o.         ",
"        .@@..         ",
"        ...@.         ",
"        ...@.         ",
"        .....         ",
"         ...          ",
"                      ",
"                      ",
"                      "};
