/* XPM */
static char * info_22_xpm[] = {
"22 22 6 1",
" 	s None	c None",
".	c gray",
"X	c blue",
"o	c blue4",
"O	c black",
"+	c white",
"                      ",
"                      ",
"       .XoXOoo        ",
"     XoXoX+ooooO      ",
"    .oXoX++.ooooo     ",
"   .oXoXoo+ooooooO    ",
"   oXoXoXooooooooo    ",
"  .XoXoXo++.ooooooo   ",
"  XoXoXoo+++ooooooO   ",
"  .XoXooo++.ooooooo   ",
"  XoXoXoo+++ooooooO   ",
"  .XoXooo++.ooooooo   ",
"  XoXoXoo+++ooooooO   ",
"  .XoXooo++.ooooooo   ",
"   oXoXoo++++ooooo    ",
"   .oXoXoo+.oooooO    ",
"    XoXoXoooooooo     ",
"     .oXoooooooO      ",
"       oXoXooo        ",
"                      ",
"                      ",
"                      "};
