/* XPM */
static char*openfile[]={
"22 22 5 1",
"c c #c0c0c0",
"# c #000000",
". c None",
"b c #dcdcdc",
"a c #ffffff",
"......................",
"......................",
".............####.....",
"................##.#..",
"......#######....###..",
"......#aaaabb#...###..",
"......#aaaacab#.####..",
"......#aaaacaab#......",
"......#aaaac####......",
"......#aaaaaccc#......",
"......#aaaaaaaa#......",
"......#aaaaaaaa#......",
"......#aaaaaaaa#......",
"......#aaaaaaaa#......",
"......#aaaaaaaa#......",
"......#aaaaaaaa#......",
"......#aaaaaaaa#......",
"......##########......",
"......................",
"......................",
"......................",
"......................"};
