/* XPM */
static char * stop_xpm[] = {
"22 22 3 1",
" 	c none",
".	c #000000000000",
"o	c #FFFF00000000",
"                      ",
"                      ",
"                      ",
"       .......        ",
"      . o o o .       ",
"     . o o o o .      ",
"    . o o o o o .     ",
"   . o o o o o o .    ",
"   .o o o o o o o.    ",
"   . o o o o o o .    ",
"   .o o o o o o o.    ",
"   . o o o o o o .    ",
"   .o o o o o o o.    ",
"   . o o o o o o .    ",
"    . o o o o o .     ",
"     . o o o o .      ",
"      . o o o .       ",
"       .......        ",
"                      ",
"                      ",
"                      ",
"                      "};
