/* XPM */
static const char * anchor_xpm[] = {
"13 13 6 1",
" 	c None",
".	c #A4A1A4",
"+	c #626162",
"@	c #FFFFFF",
"#	c #C5C2C5",
"$	c #626262",
"    .....    ",
"  ..+++++..  ",
" .++@@@@@+#@ ",
" .+@@@$@@@#@ ",
".+@@@$$$@@@#@",
".+@@@@$@@@@#@",
".+@@@@$@@@@#@",
".+@$$@$@$$@#@",
".+@@$$$$$@@#@",
" .+@@$$$@@#@ ",
" .##@@@@@##@ ",
"  @@#####@@  ",
"    @@@@@    "};
