/* XPM */
static const char * anchor_grey_xpm[] = {
"13 13 7 1",
" 	c None",
".	c #A4A1A4",
"+	c #626162",
"@	c #EFEFEF",
"#	c #C5C2C5",
"$	c #FFFFFF",
"%	c #626262",
"    .....    ",
"  ..+++++..  ",
" .++@@@@@+#$ ",
" .+@@@%@@@#$ ",
".+@@@%%%@@@#$",
".+@@@@%@@@@#$",
".+@@@@%@@@@#$",
".+@%%@%@%%@#$",
".+@@%%%%%@@#$",
" .+@@%%%@@#$ ",
" .##@@@@@##$ ",
"  $$#####$$  ",
"    $$$$$    "};
