/* XPM */
static const char * green_xpm[] = {
"13 13 9 1",
" 	c None",
".	c #A4A1A4",
"+	c #626162",
"@	c #00B51E",
"#	c #009E17",
"$	c #C5C2C5",
"%	c #FFFFFF",
"&	c #00FF2E",
"*	c #00D824",
"    .....    ",
"  ..+++++..  ",
" .++@@@@#+$% ",
" .+@@&&&@#$% ",
".+#@&%&&&@#$%",
".+#*%&*&&*#$%",
".+#*&&&&&*#$%",
".+#*&&&&&*#$%",
".+#@&&&&&@#$%",
" .+#@***@#$% ",
" .$$#####$$% ",
"  %%$$$$$%%  ",
"    %%%%%    "};
