/* XPM */
/* Drawn  by Nico Shirwing for the K Desktop Environment */
/* See http://www.kde.org */
static char*kfind[]={
"32 32 8 1",
"# c #000000",
"b c #c0c0c0",
"a c #ffffff",
"e c #585858",
"d c #a0a0a4",
"c c #0000ff",
"f c #00ffff",
". c None",
"..######################........",
".#a#baaaaaaaaaaaaaaaaaa#........",
"#aa#baaaaaaaaaaaaaccaca#........",
"####baaaaaaaaaaaaaaaaca####.....",
"#bbbbaaaaaaaaaaaacccaaa#da#.....",
"#aaaaaaaaaaaaaaaacccaca#da#.....",
"#aaaaaaaaaaaaaaaaaccaca#da#.....",
"#aaaaaaaaaabe###ebaaaaa#da#.....",
"#aaaaaaaaa#########aaaa#da#.....",
"#aaaaaaaa###dbbbb###aaa#da#.....",
"#aaaaaaa###aaaaffb###aa#da#.....",
"#aaaaaab##aaccaaafb##ba#da#.....",
"#aaaaaae#daaccaccaad#ea#da#.....",
"#aaaaaa##aaaaaaccaab##a#da#.....",
"#aaaaaa##aacccaaaaab##a#da#.....",
"#aaaaaa##aaccccaccab##a#da#.....",
"#aaaaaae#daccccaccad#ea#da#.....",
"#aaaaaab##aacccaaaa##da#da#.....",
"#aaccacd###aaaaaaa###da#da#.....",
"#aaaaacad###daaad#####a#da#.....",
"#acccaaaad##########da##da#.....",
"#acccacaaadde###edd#eda#da#.....",
"#aaccacaaaabdddddbdd#eda#a#.....",
"#aaaaaaaaaaaaaaaaaadd#eda##.....",
"#aaaaaaaaaaaaaaaaaaadd#eda#.....",
"#aaaaaaaccacaaaaaaaaadd#eda#....",
"#aaaaaaaaaacaaaaaaaaaad##eda#...",
"#aaaaaacccaaaaaaaaaaaaa#d#eda#..",
"########################dd#eda#.",
"...#dddddddddddddddddddddd##eda#",
"...#aaaaaaaaaaaaaaaaaaaaaa#.####",
"...########################..##."};

