/* XPM */
static char * image_name[] = {
"32 32 17 1",
" 	c None",
".	c #000000000000",
"X	c #FFFFFBEEFFFF",
"o	c #D75CB6DAAEBA",
"O	c #596559655144",
"+	c #B6DA8A286185",
"@	c #71C682078617",
"#	c #5144451430C2",
"$	c #A6996DB65144",
"%	c #30C238E34103",
"&	c #D75CA28971C6",
"*	c #69A64D344103",
"=	c #49241C711861",
"-	c #30C228A22081",
";	c #186114511040",
":	c #E79DD34CD75C",
">	c #0000000030C2",
"       ........   XXXo          ",
"     ..O......O..Xoo++          ",
"    .@..#.@@@O .#.++oX$+        ",
"   ...###.O#%###...XX&XXXo      ",
"  ...#%#%+XXX.@@*@..o++++$      ",
" .#.%##+XXoo+.XX@O.#.+++oX$$    ",
" ..%#$oX+++++++++++..XX&XXoo+$  ",
".%.=$XXX$+++$+XXX.X.*.XXo+++++  ",
"..--X$$$$$$$+++++.o+..++++&XX&&$",
"..-*X$$$$$oX+&$+++++..#+XXX&+$$*",
"..-#X$$$XX$+++$++$oX..*+$$$$*$#-",
"..;#X*#$X$$$$$$$oXXo..-$$$*#$**.",
"..;*X***X$$$$XXo$$$$..%$$*$$**#.",
"..;-XO##X$$$X&$$$+$$..-$*$$***#.",
".;.-XO##X%#*X$+#$+$.#.-$#$**#*.O",
"X..-X=##X***X+$+$$$..--$$#****;O",
"X.;.X--#X#**X#$$$$.#.-$*****##. ",
"X#..X-=-XO#;X$+$$...--$#******. ",
"X*;...-*X=%=&$$$.....$******##O ",
"X#.*.;..X-#=o$..#..==.**#*##**O ",
":#OX@..#......#..-.-=...**###-@ ",
" $OXX-;........---=..===.*###-$ ",
" $oXo#.@@;;#-#--%---.====.##-.O ",
" OoX:#OXX-;#%--$$*--..====.-.O  ",
" +X*o$OXX#.o$$#$*#*--..;===.O   ",
" $X*o$oX:#.X*$$*****;-..====.   ",
"  ..O+@Xo$OX*$****###.-..-===.  ",
"   O@+X*o$OX$**#**#*.O--..-===. ",
"      X*.+oX*#***.OO   %%..O===.",
"      ..OOoX****.OO     OO..O==.",
"         +X#O.OOO        OO>.OO.",
"          X*.O            @O.>.>"};
