/* XPM */
/* Drawn  by Mark Donohoe for the K Desktop Environment */
/* See http://www.kde.org */
static char*kmultiple[]={
"40 40 12 1",
"# c #000000",
"e c #808080",
"b c #ffffc0",
"f c #004000",
"c c #c0c000",
"a c #ffffff",
"g c #a0a0a4",
"h c #000000",
"j c #ffffc0",
"d c #404000",
"i c #c0c0c0",
". c None",
"........................................",
"........................................",
"........................................",
"........................................",
"........................................",
"........................................",
".......................#................",
"......................#a##..............",
"................#....#aaaa##............",
"...............#a##.#aaaaaaa##..........",
"..............#aaaa#aaabaaaaaa##........",
".............#aaaa#aaaaaaaabaaaa##......",
"............#aabb#aacaaaaaaaaaaaba#.....",
"...........#aabb#aaaaccaaaaaaaaaaaa#....",
"..........#aabbdaacaaaaccaaaaaaaaa#.....",
".........#aabbdabaaccaaabccaaaaaa#e##...",
"........daaabfaacbbbaccbaaaccaab#gaaa##.",
".......dabbb#baaaccabaaccbaabaa#g##aaa#.",
"......#aaba#bacbaabccbaaaccabb#eaaa###..",
".....#bbba#bbbbccaabbccaaaaabhiaaaaba##.",
"....#baaa#bbbbbbbccabbaccaab#iaaaaaaaa#.",
"...#bbbb##ebbbbbbbbccbaabba#aaaaaaaaa##.",
"..#bbbb#bb##ebbbbbbbbccaabfbccaaaaaa#b#.",
"..#ebb#bbcbb##ebbbbbbbbbb#eaaaccaab#b#e.",
"...#b#bbbbccbb##gbbbbbbbfeccbaabaa#b#e..",
"....#bbbbbbbcc#j##ebbbb#eaaaccabb#b#e...",
"....#ebbbbbbb#bbbb##ee#gccaaaaabhb#g....",
".....##ebbbb#bbbbbbj##abbaccaab#b#g.....",
".......##ebb#ebbbbbbbbccbaabba#b#e......",
".........##bb##ebbbbbbbbccaab#bhg.......",
"...........##bb##ebbbbbbbbbb#b#g........",
"...........#be#bb##gbbbbbbb#b#g.........",
"............##be#bj##ebbbb#b#e..........",
"..............##bbbbb##ee#b#e...........",
"................##gbbbj##b#e............",
"..................##ebbbb#e.............",
"....................##ee#g..............",
"......................##g...............",
"........................................",
"........................................"};

