/* XPM */
static char * close_xpm[] = {
"16 16 3 1",
" 	c None",
".	c #000000000000",
"X	c #69A6C30BFFFF",
"                ",
"  .             ",
"  ..            ",
"  .X.           ",
"  .XX.          ",
"  .XXX.         ",
"  .XXXX.        ",
"  .XXXXX.       ",
"  .XXXXX.       ",
"  .XXXX.        ",
"  .XXX.         ",
"  .XX.          ",
"  .X.           ",
"  ..            ",
"  .             ",
"                "};
